<svg width="640" height="512" viewBox="0 0 640 512" fill="none" xmlns="http://www.w3.org/2000/svg">
<path d="M488 191.1H336L336 242.96C336 280.62 308.92 314.96 271.45 318.73C228.36 323.063 192 289.31 192 247.1V126.4L167.49 141.13C123.2 167.8 96.0399 215.7 96.0399 267.5L16.0399 313.8C0.789902 322.551 -4.5901 342.18 4.2899 357.43L84.2899 496.03C93.1649 511.28 112.79 516.53 128.04 507.78L231.44 448.03H368.04C403.29 448.03 432.04 419.28 432.04 384.03C458.55 384.03 480.04 362.54 480.04 336.03V288H488.04C501.29 288 512.04 277.25 512.04 264L512.04 216C512 202.7 501.3 191.1 488 191.1ZM635.7 154.5L555.75 15.9001C546.875 0.650104 527.25 -4.5999 512 4.1501L408.6 63.9001H346.03C308.18 63.9001 271.1 74.5101 238.93 94.5301C229.7 100.4 224 110.6 224 121.6L223.999 248C223.999 270.13 241.88 288 264 288C286.13 288 304 270.12 304 248V159.1H488C518.93 159.1 543.999 184.17 543.999 215.1V243.6L623.999 197.35C639.3 189.4 644.5 169.8 635.7 154.5Z" fill="white"/>
</svg>
