<svg width="576" height="512" viewBox="0 0 576 512" fill="none" xmlns="http://www.w3.org/2000/svg">
<path d="M568.2 336.3C555.08 318.49 530.06 314.64 512.27 327.831L392.57 416.001H271.97C263.222 416.001 256.87 408.751 256.87 400.011C256.87 391.261 264.12 384.011 271.97 384.011H350.22C365.32 384.011 380.97 373.131 383.59 357.391C386.84 337.391 371.47 320.011 351.97 320.011H191.1C165 320.011 137.98 329.261 116.98 346.261L70.48 384.001L15.1 383.1C7.251 383.1 0 391.3 0 400V495.98C0 504.8 7.251 512 15.1 512H361.2C383.23 512 405.12 504.812 422.9 491.73L558 392.21C577.5 379.1 581.3 354.1 568.2 336.3ZM160 176H224V240C224 248.8 231.2 256 240 256H304C312.8 256 320 248.8 320 240V176H384C392.836 176 400 168.836 400 160V96C400 87.162 392.836 80 384 80H320V16C320 7.162 312.8 0 304 0H240C231.2 0 224 7.162 224 16V80H160C151.2 80 144 87.16 144 96V160C144 168.8 151.2 176 160 176Z" fill="white"/>
</svg>
