<svg width="456" height="439" viewBox="0 0 456 439" fill="none" xmlns="http://www.w3.org/2000/svg">
<g clip-path="url(#clip0_249:12)" filter="url(#filter0_d_249:12)">
<path d="M228.1 141C164.5 141 113.2 192.3 113.2 255.9C113.2 319.5 164.5 370.8 228.1 370.8C291.7 370.8 343 319.5 343 255.9C343 192.3 291.7 141 228.1 141ZM228.1 330.6C187 330.6 153.4 297.1 153.4 255.9C153.4 214.7 186.9 181.2 228.1 181.2C269.3 181.2 302.8 214.7 302.8 255.9C302.8 297.1 269.2 330.6 228.1 330.6V330.6ZM374.5 136.3C374.5 151.2 362.5 163.1 347.7 163.1C332.8 163.1 320.9 151.1 320.9 136.3C320.9 121.5 332.9 109.5 347.7 109.5C362.5 109.5 374.5 121.5 374.5 136.3ZM450.6 163.5C448.9 127.6 440.7 95.8002 414.4 69.6002C388.2 43.4002 356.4 35.2002 320.5 33.4002C283.5 31.3002 172.6 31.3002 135.6 33.4002C99.7998 35.1002 67.9998 43.3002 41.6998 69.5002C15.3998 95.7002 7.2998 127.5 5.4998 163.4C3.3998 200.4 3.3998 311.3 5.4998 348.3C7.1998 384.2 15.3998 416 41.6998 442.2C67.9998 468.4 99.6998 476.6 135.6 478.4C172.6 480.5 283.5 480.5 320.5 478.4C356.4 476.7 388.2 468.5 414.4 442.2C440.6 416 448.8 384.2 450.6 348.3C452.7 311.3 452.7 200.5 450.6 163.5V163.5ZM402.8 388C395 407.6 379.9 422.7 360.2 430.6C330.7 442.3 260.7 439.6 228.1 439.6C195.5 439.6 125.4 442.2 95.9998 430.6C76.3998 422.8 61.2998 407.7 53.3998 388C41.6998 358.5 44.3998 288.5 44.3998 255.9C44.3998 223.3 41.7998 153.2 53.3998 123.8C61.1998 104.2 76.2998 89.1002 95.9998 81.2002C125.5 69.5002 195.5 72.2002 228.1 72.2002C260.7 72.2002 330.8 69.6002 360.2 81.2002C379.8 89.0002 394.9 104.1 402.8 123.8C414.5 153.3 411.8 223.3 411.8 255.9C411.8 288.5 414.5 358.6 402.8 388Z" fill="white"/>
</g>
<defs>
<filter id="filter0_d_249:12" x="0" y="0" width="456" height="520" filterUnits="userSpaceOnUse" color-interpolation-filters="sRGB">
<feFlood flood-opacity="0" result="BackgroundImageFix"/>
<feColorMatrix in="SourceAlpha" type="matrix" values="0 0 0 0 0 0 0 0 0 0 0 0 0 0 0 0 0 0 127 0" result="hardAlpha"/>
<feOffset dy="4"/>
<feGaussianBlur stdDeviation="2"/>
<feComposite in2="hardAlpha" operator="out"/>
<feColorMatrix type="matrix" values="0 0 0 0 0 0 0 0 0 0 0 0 0 0 0 0 0 0 0.25 0"/>
<feBlend mode="normal" in2="BackgroundImageFix" result="effect1_dropShadow_249:12"/>
<feBlend mode="normal" in="SourceGraphic" in2="effect1_dropShadow_249:12" result="shape"/>
</filter>
<clipPath id="clip0_249:12">
<rect width="448" height="512" fill="white" transform="translate(4)"/>
</clipPath>
</defs>
</svg>
